<?xml version="1.0" standalone="no"?>
<!DOCTYPE svg PUBLIC "-//W3C//DTD SVG 20010904//EN"
 "http://www.w3.org/TR/2001/REC-SVG-20010904/DTD/svg10.dtd">
<svg version="1.0" xmlns="http://www.w3.org/2000/svg"
 width="1084.000000pt" height="1084.000000pt" viewBox="0 0 1084.000000 1084.000000"
 preserveAspectRatio="xMidYMid meet">
<metadata>
Created by potrace 1.11, written by Peter Selinger 2001-2013
</metadata>
<g transform="translate(0.000000,1084.000000) scale(0.100000,-0.100000)"
fill="#000000" stroke="none">
<path d="M5020 10829 c-1137 -85 -2204 -519 -3090 -1257 -148 -124 -538 -514
-662 -662 -976 -1172 -1411 -2645 -1228 -4156 73 -603 241 -1161 515 -1719
362 -736 864 -1357 1510 -1868 1158 -918 2652 -1318 4130 -1106 773 110 1529
396 2185 826 323 212 582 424 866 707 440 441 769 899 1039 1451 823 1680 716
3678 -280 5261 -336 535 -771 1013 -1284 1412 -442 344 -1007 647 -1558 836
-431 147 -897 240 -1378 276 -163 12 -599 11 -765 -1z m-560 -2229 l0 -459
-32 -5 c-18 -3 -66 -8 -107 -11 -250 -19 -421 -106 -499 -253 -67 -125 -65
-100 -72 -927 -6 -731 -6 -752 -28 -829 -96 -346 -381 -571 -826 -653 -86 -16
-96 -20 -96 -39 0 -19 12 -24 113 -44 447 -89 703 -278 808 -595 l23 -70 7
-780 c5 -702 7 -786 23 -839 71 -242 241 -351 581 -374 l100 -7 3 -462 2 -463
-84 0 c-260 0 -643 38 -851 85 -280 63 -441 141 -580 280 -100 100 -158 191
-199 317 -61 181 -58 143 -66 1038 -7 908 -4 871 -71 1007 -105 217 -339 352
-689 399 -58 7 -144 14 -192 14 l-88 0 0 488 0 489 128 6 c446 23 734 162 851
410 55 117 54 101 61 997 6 747 8 843 24 910 108 459 372 670 961 769 212 35
309 43 753 59 l42 2 0 -460z m2375 439 c762 -51 1141 -250 1264 -664 54 -182
54 -188 61 -1095 5 -837 6 -846 28 -911 44 -130 154 -260 277 -326 139 -73
343 -118 591 -130 l144 -6 -2 -486 -3 -486 -140 -7 c-502 -24 -779 -179 -872
-488 -15 -48 -17 -156 -23 -885 -7 -913 -8 -919 -72 -1112 -101 -306 -345
-483 -793 -577 -205 -42 -568 -75 -832 -76 l-93 0 0 459 c0 521 -10 471 94
471 92 0 240 28 329 62 132 50 219 149 264 299 15 47 18 154 23 834 5 682 8
787 22 835 73 248 212 403 463 521 91 43 281 100 393 119 64 10 72 14 72 34 0
19 -9 23 -98 39 -178 33 -370 108 -501 196 -97 66 -204 190 -256 294 -92 186
-88 149 -95 1007 -7 829 -4 796 -70 919 -75 139 -217 215 -452 241 -56 6 -122
14 -145 16 l-43 5 0 453 c0 249 3 455 6 459 8 7 252 0 459 -14z"/>
</g>
</svg>
